<svg width="182" height="54" viewBox="0 0 182 54" fill="none" xmlns="http://www.w3.org/2000/svg">
<g clip-path="url(#clip0_17_11)">
<path d="M4.81933 17.8043C4.2041 18.3288 3.44075 18.5568 2.70019 18.4998C1.95393 18.4428 1.23046 18.1007 0.706374 17.485L0.694981 17.4679C0.176589 16.8579 -0.0455794 16.094 0.0113868 15.3585C0.0683529 14.6117 0.41015 13.8877 1.02538 13.3632L1.03108 13.3575C6.19221 8.92779 11.7008 5.57559 17.3975 3.33509C23.1396 1.07749 29.0755 -0.0456068 35.057 0.00570235C40.953 0.0570115 46.8717 1.25422 52.6595 3.63155C58.2479 5.92906 63.7109 9.33256 68.9233 13.8763C68.986 13.9219 69.043 13.9732 69.0885 14.0245C69.6354 14.549 69.943 15.2388 69.9886 15.9457C70.0342 16.6527 69.8234 17.3767 69.3506 17.9696C69.305 18.038 69.248 18.1007 69.1854 18.1577C68.6613 18.705 67.972 19.0129 67.2656 19.0585C66.5251 19.1098 65.756 18.8704 65.1522 18.3402C60.4411 14.2183 55.5249 11.1455 50.5233 9.07602C45.402 6.95524 40.1896 5.89485 35.0114 5.84924C29.7705 5.80363 24.541 6.80701 19.4539 8.81377C14.3839 10.8148 9.45637 13.825 4.81933 17.8043ZM35 41.2012C36.7659 41.2012 38.361 41.9196 39.5174 43.0769C40.6738 44.2342 41.3916 45.8362 41.3916 47.5978C41.3916 49.3651 40.6738 50.9614 39.5174 52.1187C38.361 53.276 36.7602 53.9943 35 53.9943C33.234 53.9943 31.639 53.276 30.4769 52.1187C29.3205 50.9614 28.6027 49.3594 28.6027 47.5978C28.6027 45.8362 29.3205 44.2342 30.4769 43.0769C31.639 41.9196 33.234 41.2012 35 41.2012ZM23.9656 37.7236C23.339 38.231 22.5643 38.4419 21.8237 38.3621C21.1173 38.288 20.4337 37.9574 19.9324 37.3873C19.8755 37.3302 19.8242 37.2675 19.7843 37.2048C19.3286 36.5948 19.1463 35.8651 19.2204 35.1582C19.2944 34.4512 19.6248 33.7671 20.1945 33.2654C20.2458 33.2141 20.3027 33.1685 20.3597 33.1286C22.6383 31.2872 25.0195 29.879 27.4634 28.9269C29.9414 27.9578 32.4878 27.4618 35.057 27.4561C37.592 27.4504 40.1212 27.9179 42.6164 28.8813C45.0374 29.8163 47.4243 31.2245 49.7257 33.1058C50.3524 33.6132 50.7113 34.3315 50.791 35.0726C50.8651 35.8138 50.66 36.5891 50.153 37.2162L50.1473 37.2219C49.6403 37.8433 48.9282 38.2025 48.182 38.2823C47.4414 38.3564 46.6667 38.1512 46.04 37.6438C44.2513 36.1786 42.4227 35.0954 40.5941 34.3771C38.7427 33.6474 36.8913 33.2939 35.057 33.2996C33.2056 33.3053 31.3428 33.6816 29.4914 34.417C27.6058 35.1582 25.7544 36.2699 23.9656 37.7236ZM14.703 28.3055C14.6574 28.3511 14.6061 28.3968 14.5548 28.431C13.9681 28.9098 13.2446 29.1208 12.5439 29.0809C11.8205 29.0353 11.1141 28.7217 10.5843 28.1516C10.533 28.106 10.4932 28.0547 10.4533 28.0034C9.97477 27.4162 9.76399 26.6921 9.80387 25.9909C9.84944 25.2441 10.1798 24.5144 10.7837 23.9785C14.6631 20.5408 18.6735 17.9411 22.7523 16.2194C26.8424 14.4977 31.0067 13.6482 35.1994 13.7223C39.3408 13.7908 43.4766 14.7485 47.5553 16.6299C51.5259 18.4599 55.4508 21.1679 59.2847 24.7823L59.3587 24.8507C59.8999 25.3923 60.179 26.1049 60.2018 26.8233C60.2246 27.5701 59.9626 28.3226 59.41 28.9098L59.3416 28.984C58.7948 29.5256 58.0884 29.8106 57.3706 29.8334C56.6243 29.8562 55.8724 29.594 55.2856 29.041C51.9645 25.9054 48.6035 23.5737 45.2482 22.0002C41.8587 20.4153 38.4692 19.6115 35.1082 19.5545C31.696 19.4975 28.2723 20.2101 24.8771 21.6582C21.442 23.1347 18.0355 25.3581 14.703 28.3055Z" fill="white"/>
</g>
<g clip-path="url(#clip1_17_11)">
<path fill-rule="evenodd" clip-rule="evenodd" d="M110.799 7H174.162C175.189 7 176.028 7.84046 176.028 8.86902V15.7928C176.088 15.7802 176.151 15.7748 176.215 15.7748H181.068C181.581 15.7748 182.001 16.1932 182.001 16.7075V33.5268C182.001 34.0393 181.581 34.4608 181.068 34.4608H176.215C176.151 34.4608 176.088 34.4535 176.028 34.4421V42.1316C176.028 43.1595 175.189 44.0006 174.162 44.0006H109.866C108.84 44 108 43.1595 108 42.1316V9.80233C108 8.26008 109.259 7 110.799 7ZM118.185 15.943H165.844V35.057H118.185V15.943ZM114.394 12.1079H169.634V38.8921H114.394V12.1079Z" fill="white"/>
</g>
<defs>
<clipPath id="clip0_17_11">
<rect width="70" height="54" fill="white"/>
</clipPath>
<clipPath id="clip1_17_11">
<rect width="74" height="37" fill="white" transform="translate(108 7)"/>
</clipPath>
</defs>
</svg>
